<svg id="Layer_1" data-name="Layer 1" xmlns="http://www.w3.org/2000/svg" preserveAspectRatio="none" xmlns:xlink="http://www.w3.org/1999/xlink" viewBox="0 0 1999.33 714.69"><defs><style>.cls-1{fill:url(#linear-gradient);}.cls-2{fill:url(#linear-gradient-2);}.cls-3{fill:url(#linear-gradient-3);}.cls-4{fill:url(#linear-gradient-4);}.cls-5{fill:#463280;}</style><linearGradient id="linear-gradient" x1="1518.09" y1="191.75" x2="1960.13" y2="191.75" gradientUnits="userSpaceOnUse"><stop offset="0" stop-color="#8174e2"/><stop offset="1" stop-color="#ddc0ff"/></linearGradient><linearGradient id="linear-gradient-2" x1="-39.19" y1="580.33" x2="231.8" y2="580.33" xlink:href="#linear-gradient"/><linearGradient id="linear-gradient-3" x1="1660.13" y1="286.66" x2="1866.67" y2="286.66" gradientUnits="userSpaceOnUse"><stop offset="0" stop-color="#efebfe"/><stop offset="1" stop-color="#fefefe"/></linearGradient><linearGradient id="linear-gradient-4" x1="39.58" y1="416.06" x2="121.54" y2="416.06" xlink:href="#linear-gradient-3"/></defs><title>background-1</title><path class="cls-1" d="M1960,149c1,19.27-4.16,36.87-14.71,44.39-10.42,8.3-26.38,6.75-45.85,8.5s-42.41,6.49-66.23,24.32c-23.56,16.26-47.29,44.4-71.7,70.75-23.61,25.12-46.36,43.44-70.08,44.85-23.46,2.2-48.85-11-72.81-29.41-24.41-17.6-47.5-40.23-64.46-57.5-17.44-17.48-28.37-30.18-33.12-43.18s-3.4-27.45,1.37-48.12c5.25-20.44,14.3-47.69,29.61-71,15.75-24.06,37.67-44,66.73-49.32,28.8-6.08,63.79,4,100.78,20.45,36.2,17.68,70.21,37.58,99.17,46.32,28.69,10.31,53.07,8.34,73.29,4.34s36.44-10,48.23-4.9C1951.89,113.84,1959,129.68,1960,149Z" transform="translate(39.19 -41.48)"/><path class="cls-2" d="M231.22,491c2.1,38.9-1.8,74.87-6.31,91.18-4.6,17.5-10.49,17-18,15.55s-16.75-3.65-25.92,6.55c-9.11,9.14-17.42,28.79-21.73,49.87-3,14-4.37,26.91-6,35.37,1,11.12,2.17,22.25,2.93,32.39,1.46,19.89.78,34.88-2.38,34.21-3.11.07-8.41-15.67-22.52-38.35-14.37-22.17-38-48-61.39-67.58-24-18.4-45.76-31.64-60.79-39.06-16.46-7.92-25.57-11.59-33.52-17.11-7.6-5.21-13.81-11.74-14.74-21.85-.42-10.16,4.72-24.33,21.36-45.39,16.21-21.37,41.72-50.15,60.11-74.07,16.15-21.27,23.14-32.67,30.5-38.2,7-5.37,14.3-4.65,22.45,2.61,8.84-7,20.46-3.37,34.88,4.78,14.05,8.71,27.83,17.73,38.64,16.38,11-.3,18.64-12.42,23.75-22.27s8.87-17.14,17.8-5.88C218.8,420.34,229.44,452.14,231.22,491Z" transform="translate(39.19 -41.48)"/><path class="cls-3" d="M1863.85,286.92c16.67,32.64-43.47,50.65-103.35,43.08-60-6.92-113.9-24.46-97.33-44.92,7.6-10.44,28.79-20.37,46.94-28.12,19-7.76,34.85-13.35,50.39-15s32.92,1.05,53.4,8.81C1833.58,258.42,1856.29,271.29,1863.85,286.92Z" transform="translate(39.19 -41.48)"/><path class="cls-4" d="M114.34,416.68c3.48,19.61,9.92,37,6,46.61-3.25,9.94-16.91,12.15-37.21,8.29-20.24-4-35.71-12.46-40.77-22.37-5.77-10-1.13-21.57,2.41-34.86,7.2-26.22,15.55-50.66,38.36-54.89C106,354.51,107,376.07,114.34,416.68Z" transform="translate(39.19 -41.48)"/><path class="cls-5" d="M251.79,525.58c-4,19.9-9.53,28-16.44,22.54S218.9,532,214.93,528.42c-4.32-2.93,5.06-11.11,20.42-22.54S256,505,251.79,525.58Z" transform="translate(39.19 -41.48)"/><path class="cls-5" d="M1590.93,143.87c-8.9,43.79-21,61.56-36.15,49.6-15-11.91-36.19-35.47-44.94-43.34-3.88-5-2.25-8.76,6.09-17.49a271.94,271.94,0,0,1,38.85-32.11c16.12-10.78,28.63-13.66,34.46-5C1595.34,103.54,1594.74,123.09,1590.93,143.87Z" transform="translate(39.19 -41.48)"/></svg>