<svg xmlns="http://www.w3.org/2000/svg" xmlns:xlink="http://www.w3.org/1999/xlink" preserveAspectRatio="none" viewBox="0 0 881.23 629.79"><defs><style>.cls-1{fill:none;}.cls-2{fill:#231f20;}.cls-3{clip-path:url(#clip-path);}.cls-4{fill:url(#linear-gradient);}.cls-5{fill:url(#linear-gradient-2);}</style><clipPath id="clip-path"><rect class="cls-1" x="33.51" width="764" height="462"/></clipPath><linearGradient id="linear-gradient" x1="340.18" y1="547.07" x2="340.18" y2="137.44" gradientUnits="userSpaceOnUse"><stop offset="0" stop-color="#746483"/><stop offset="0.82" stop-color="#2b2629"/></linearGradient><linearGradient id="linear-gradient-2" x1="440.61" y1="631.55" x2="440.61" y2="46.85" gradientUnits="userSpaceOnUse"><stop offset="0.29" stop-color="#746483"/><stop offset="0.92" stop-color="#2b2629"/></linearGradient></defs><title>Asset 1</title><g id="Layer_2" data-name="Layer 2"><g id="Layer_1-2" data-name="Layer 1"><rect class="cls-2" x="33.51" width="764" height="462"/><g class="cls-3"><path class="cls-4" d="M68.51,286c33.37-30.28,75.1-31.12,119-32,37.09-.74,73.16-1.47,105,21,12.47,8.8,18.21,16.86,31,18,21.26,1.89,40.4-17.25,63-46,56.25-71.55,54-100.91,74-108,54.37-19.29,221.84,144.47,189,266-36,133.43-300.87,168.92-470,123C131,514.82,58.3,493.94,34.51,431,16.7,383.88,29.41,321.48,68.51,286Z"/><path class="cls-5" d="M0,457.5c1.41-34.7,133-92.8,242-59,41.38,12.83,76.93,38.11,117,22,4.89-2,23.19-9.91,41-35,59.19-83.36-20.18-180,37.5-263.5,28.66-41.46,66.67-59.79,82-67,73.23-34.43,182.36-32.73,221,22,20.76,29.4,22.7,76.27,25,132,.74,17.82,1.49,28.55,3,50,2.25,32,3.43,48.13,6,53,17.36,32.91,71.76,15.28,95,40,30.14,32.05-3.16,123.6-40,174-168.31,230.32-705.89,12.56-798-37C13.07,479.08-.45,468.89,0,457.5Z"/></g></g></g></svg>