<svg xmlns="http://www.w3.org/2000/svg" preserveAspectRatio="none" viewBox="0 0 578.59 212.59"><defs><style>.cls-1{fill:#231f20;}.cls-2{fill:#efebfd;}.cls-3{fill:#cbb0e9;}</style></defs><title>Asset 1</title><g id="Layer_2" data-name="Layer 2"><g id="Layer_1-2" data-name="Layer 1"><path class="cls-1" d="M578.48,197.48c0,4.33-.1,8.67.06,13,.06,1.71-.27,2.37-2,2a13.78,13.78,0,0,0-2.49,0q-284.55,0-569.09.11c-3.91,0-4.54-1.05-4.52-4.67.16-30.81.09-61.63.09-92.44,1.07-.83,1.88.07,2.66.5,29.61,16.44,61.25,26.69,94.71,31.79,31.2,4.75,61.94,3.82,92.44-4.92,21.35-6.13,41.47-15.31,61.94-23.64,32.48-13.22,65.9-19.37,101-14.95,29,3.65,56.23,13.17,82.85,24.75,29.18,12.69,56.49,29.05,84.83,43.41C539.62,181.9,558.45,191.07,578.48,197.48Z"/><path class="cls-1" d="M.48,111.48v-101c6.46.65,12.92,1.34,19.38,1.94C48.21,15,76.43,18.76,104.54,23.17c28.27,4.43,56.34,9.89,84.3,16,30.07,6.54,59.79,14.44,89.44,22.61C314.33,71.69,350,83,386.8,90.11c31.59,6.12,63.36,7.92,95.4,3.72a280.84,280.84,0,0,0,91.86-28.89c1.35-.68,2.5-2.37,4.42-1.46v131c-4-.39-7.58-2.3-11.27-3.74C537.06,179,508.92,163.09,480.43,148c-37.72-20-76.3-37.87-118.87-45.06A190.87,190.87,0,0,0,277,107.12c-21.85,6.16-42.43,15.59-63.34,24.17-39,16-79.43,20.24-120.89,13.86a216.13,216.13,0,0,1-32-7.73C39.79,130.82,19.48,122.73.48,111.48Z"/><path class="cls-2" d="M578.48,63.48c-1.92-.91-3.07.78-4.42,1.46A280.84,280.84,0,0,1,482.2,93.83c-32,4.2-63.81,2.4-95.4-3.72C350,83,314.33,71.69,278.28,61.75c-29.65-8.17-59.37-16.07-89.44-22.61-28-6.08-56-11.54-84.3-16C76.43,18.76,48.21,15,19.86,12.42,13.4,11.82,6.94,11.13.48,10.48c0-3.33-1.3-8,.37-9.63S7.15.48,10.48.48Q292.24.48,574,.39c3.75,0,4.65.84,4.6,4.59C578.37,24.48,578.48,44,578.48,63.48Z"/><path class="cls-3" d="M.48,111.48c19,11.25,39.31,19.34,60.34,25.94a216.13,216.13,0,0,0,32,7.73c41.46,6.38,81.86,2.15,120.89-13.86,20.91-8.58,41.49-18,63.34-24.17a190.87,190.87,0,0,1,84.55-4.23c42.57,7.19,81.15,25,118.87,45.06,28.49,15.14,56.63,31,86.78,42.79,3.69,1.44,7.23,3.35,11.27,3.74v3c-20-6.41-38.86-15.58-57.55-25.06C492.59,158.06,465.28,141.7,436.1,129c-26.62-11.58-53.82-21.1-82.85-24.75-35.12-4.42-68.54,1.73-101,14.95-20.47,8.33-40.59,17.51-61.94,23.64-30.5,8.74-61.24,9.67-92.44,4.92-33.46-5.1-65.1-15.35-94.71-31.79-.78-.43-1.59-1.33-2.66-.5Z"/></g></g></svg>