<svg xmlns="http://www.w3.org/2000/svg" xmlns:xlink="http://www.w3.org/1999/xlink" width="282.646" height="506.754" viewBox="0 0 282.646 506.754"><defs><style>.a{fill:url(#a);}.b{opacity:0.85;}.c{fill:url(#b);}.d{fill:url(#c);}.e{fill:#ddc0ff;}.f{opacity:0.69;}.g{fill:url(#d);}.h{fill:url(#e);}.i,.j,.k{fill:none;stroke-miterlimit:10;}.i,.j{stroke:#ddc0ff;}.i{stroke-width:2px;}.k{stroke:#707070;}.l{fill:url(#f);}.m{fill:url(#g);}.n{fill:url(#h);}.o{fill:url(#i);}.p{fill:url(#j);}.q{fill:url(#k);}.r{fill:url(#l);}.s{fill:url(#m);}.t{fill:url(#n);}.u{fill:url(#o);}.v{fill:url(#p);}.w{fill:url(#q);}.x{fill:url(#r);}.y{fill:url(#s);}.z{fill:url(#t);}.aa{fill:url(#u);}</style><linearGradient id="a" x1="0.5" y1="1" x2="0.5" gradientUnits="objectBoundingBox"><stop offset="0" stop-color="#fff" stop-opacity="0"/><stop offset="0.02" stop-color="#efeefb" stop-opacity="0.122"/><stop offset="0.05" stop-color="#d8d4f6" stop-opacity="0.31"/><stop offset="0.08" stop-color="#c3bdf1" stop-opacity="0.471"/><stop offset="0.12" stop-color="#b1a9ed" stop-opacity="0.62"/><stop offset="0.16" stop-color="#a299ea" stop-opacity="0.741"/><stop offset="0.2" stop-color="#968be7" stop-opacity="0.831"/><stop offset="0.26" stop-color="#8c81e5" stop-opacity="0.91"/><stop offset="0.32" stop-color="#8679e3" stop-opacity="0.961"/><stop offset="0.42" stop-color="#8275e2" stop-opacity="0.988"/><stop offset="0.67" stop-color="#8174e2"/></linearGradient><linearGradient id="b" x1="0.499" y1="1" x2="0.499" gradientUnits="objectBoundingBox"><stop offset="0" stop-color="#fff" stop-opacity="0"/><stop offset="0.11" stop-color="#f8f2ff" stop-opacity="0.2"/><stop offset="0.25" stop-color="#f0e3ff" stop-opacity="0.439"/><stop offset="0.38" stop-color="#e9d7ff" stop-opacity="0.639"/><stop offset="0.51" stop-color="#e4cdff" stop-opacity="0.8"/><stop offset="0.63" stop-color="#e0c6ff" stop-opacity="0.91"/><stop offset="0.73" stop-color="#dec2ff" stop-opacity="0.98"/><stop offset="0.8" stop-color="#ddc0ff"/></linearGradient><linearGradient id="c" x1="0.5" y1="1" x2="0.5" gradientUnits="objectBoundingBox"><stop offset="0" stop-color="#fff" stop-opacity="0"/><stop offset="0.91" stop-color="#3720b3"/></linearGradient><linearGradient id="d" x1="-2.375" y1="2.387" x2="-2.424" y2="3.339" gradientUnits="objectBoundingBox"><stop offset="0" stop-color="#fcd9e8" stop-opacity="0.502"/><stop offset="0.07" stop-color="#f6d9eb" stop-opacity="0.529"/><stop offset="0.47" stop-color="#d2dcf9" stop-opacity="0.729"/><stop offset="0.66" stop-color="#c4ddff" stop-opacity="0.8"/></linearGradient><linearGradient id="e" x1="0.5" y1="1" x2="0.5" gradientUnits="objectBoundingBox"><stop offset="0" stop-color="#fff" stop-opacity="0"/><stop offset="0.04" stop-color="#dcd8f2" stop-opacity="0.141"/><stop offset="0.09" stop-color="#b0a7e1" stop-opacity="0.322"/><stop offset="0.16" stop-color="#8a7cd3" stop-opacity="0.471"/><stop offset="0.23" stop-color="#6b5ac7" stop-opacity="0.588"/><stop offset="0.32" stop-color="#5440be" stop-opacity="0.69"/><stop offset="0.42" stop-color="#432db8" stop-opacity="0.749"/><stop offset="0.57" stop-color="#3a23b4" stop-opacity="0.788"/><stop offset="0.98" stop-color="#3720b3" stop-opacity="0.8"/></linearGradient><linearGradient id="f" x1="0.01" y1="0.5" x2="0.991" y2="0.5" gradientUnits="objectBoundingBox"><stop offset="0" stop-color="#fff" stop-opacity="0"/><stop offset="0.11" stop-color="#fbf8ff" stop-opacity="0.11"/><stop offset="0.33" stop-color="#f2e7ff" stop-opacity="0.388"/><stop offset="0.66" stop-color="#e3cbff" stop-opacity="0.831"/><stop offset="0.79" stop-color="#ddc0ff"/></linearGradient><linearGradient id="g" x1="0.03" y1="0.5" x2="0.97" y2="0.5" gradientUnits="objectBoundingBox"><stop offset="0" stop-color="#fff" stop-opacity="0"/><stop offset="0.05" stop-color="#f9f4ff" stop-opacity="0.169"/><stop offset="0.11" stop-color="#f3e8ff" stop-opacity="0.361"/><stop offset="0.17" stop-color="#edddff" stop-opacity="0.529"/><stop offset="0.24" stop-color="#e8d4ff" stop-opacity="0.678"/><stop offset="0.31" stop-color="#e4cdff" stop-opacity="0.788"/><stop offset="0.38" stop-color="#e1c7ff" stop-opacity="0.89"/><stop offset="0.46" stop-color="#dfc3ff" stop-opacity="0.949"/><stop offset="0.54" stop-color="#ddc1ff" stop-opacity="0.988"/><stop offset="0.66" stop-color="#ddc0ff"/></linearGradient><linearGradient id="h" x1="0.024" y1="0.5" x2="0.976" y2="0.5" gradientUnits="objectBoundingBox"><stop offset="0" stop-color="#8174e2" stop-opacity="0.502"/><stop offset="0.16" stop-color="#9181e7" stop-opacity="0.588"/><stop offset="0.52" stop-color="#baa3f4" stop-opacity="0.812"/><stop offset="0.79" stop-color="#ddc0ff"/></linearGradient><linearGradient id="i" x1="0.024" y1="0.5" x2="0.979" y2="0.5" gradientUnits="objectBoundingBox"><stop offset="0" stop-color="#fff" stop-opacity="0"/><stop offset="0.12" stop-color="#fbf8ff" stop-opacity="0.11"/><stop offset="0.39" stop-color="#f2e7ff" stop-opacity="0.388"/><stop offset="0.77" stop-color="#e3cbff" stop-opacity="0.831"/><stop offset="0.91" stop-color="#ddc0ff"/></linearGradient><linearGradient id="j" x1="0.477" y1="0.21" x2="0.537" y2="0.829" gradientUnits="objectBoundingBox"><stop offset="0" stop-color="#fff" stop-opacity="0"/><stop offset="0.36" stop-color="#aba1df" stop-opacity="0.42"/><stop offset="0.66" stop-color="#6c5bc7" stop-opacity="0.729"/><stop offset="0.88" stop-color="#4630b9" stop-opacity="0.929"/><stop offset="1" stop-color="#3720b3"/></linearGradient><linearGradient id="k" x1="0.499" y1="0.99" x2="0.499" y2="0.008" gradientUnits="objectBoundingBox"><stop offset="0" stop-color="#fff" stop-opacity="0"/><stop offset="0.02" stop-color="#fefdff" stop-opacity="0.039"/><stop offset="0.19" stop-color="#f4eaff" stop-opacity="0.329"/><stop offset="0.35" stop-color="#ecdbff" stop-opacity="0.569"/><stop offset="0.49" stop-color="#e5d0ff" stop-opacity="0.749"/><stop offset="0.62" stop-color="#e1c7ff" stop-opacity="0.89"/><stop offset="0.72" stop-color="#dec2ff" stop-opacity="0.969"/><stop offset="0.79" stop-color="#ddc0ff"/></linearGradient><linearGradient id="l" x1="0.5" y1="0.992" x2="0.5" y2="0.009" xlink:href="#k"/><linearGradient id="m" x1="0.5" y1="0.991" x2="0.5" y2="0.011" xlink:href="#k"/><linearGradient id="n" x1="0.5" y1="0.998" x2="0.5" y2="0.002" xlink:href="#k"/><linearGradient id="o" x1="0.5" y1="0.992" x2="0.5" y2="0.011" xlink:href="#k"/><linearGradient id="p" x1="0.501" y1="0.998" x2="0.501" y2="0.002" xlink:href="#k"/><linearGradient id="q" x1="0.5" y1="0.997" x2="0.5" y2="0.002" xlink:href="#k"/><linearGradient id="r" x1="0.5" y1="0.997" x2="0.5" y2="0.002" xlink:href="#k"/><linearGradient id="s" x1="0.5" y1="0.997" x2="0.5" y2="0.003" xlink:href="#k"/><linearGradient id="t" x1="0.5" y1="0.998" x2="0.5" y2="0.003" xlink:href="#k"/><linearGradient id="u" x1="0.447" y1="0.023" x2="0.53" y2="0.914" gradientUnits="objectBoundingBox"><stop offset="0" stop-color="#fcd9e8"/><stop offset="0.15" stop-color="#f6d4e8"/><stop offset="0.35" stop-color="#e4c5e7"/><stop offset="0.58" stop-color="#c7aee5"/><stop offset="0.83" stop-color="#9f8de3"/><stop offset="1" stop-color="#8174e2"/></linearGradient></defs><g transform="translate(-128.07 -105.23)"><path class="a" d="M170.558,198.879A64.617,64.617,0,0,0,190.8,253.657c6.691,6.127,15.588,12.855,14.093,21.8-1.164,7.046-8.345,11.151-12.916,16.641-9.705,11.654-7.169,28.835-4.093,43.687,1.385,6.7,3.566,14.411,9.914,17,2.341.956,4.963,1.042,7.353,1.936,9.166,3.456,9.877,16.249,7.242,25.673s-6.9,19.828-2.341,28.491c5.38,10.22,19.154,11.262,30.17,14.705,5.343,1.679,11.274,5.613,10.674,11.164-.282,2.549-1.924,4.706-3.358,6.826-7.353,10.821-14.289,22.279-12.512,35.219.49,3.591,5.318,9.5,8.1,11.838,4.044,3.394,10.784,2.806,13.946,7.034,3.321,4.448.343,10.723.748,16.262.539,7.634,7.353,13.039,11.409,19.521a29.41,29.41,0,0,1,3.848,21.225c9.656-6.617,16.666-17.916,15.771-29.594s-11.225-22.56-22.9-21.9c-13.2-21.188-7.855-48.295,12.794-62.314,8.676-5.907,14.227-7.267,17.634-17.156,2.451-6.973-3.921-14.938-14.313-23.149-6.127-4.9-16.2-5.061-18.884-12.426-1.752-4.9-.184-10.367,2.659-14.705,6.47-9.8,18.382-14.24,29.018-19.129s21.96-12.1,24.411-23.6c1.1-5.208.208-10.649.931-15.931,1.422-10.318,8.835-18.8,16.85-25.44s17.034-12.254,23.725-20.232c4.779-5.7,8.3-13.737,5.159-20.489-2.622-5.625-8.835-8.382-14.252-11.409a74.323,74.323,0,0,1-37.192-58.956c-.184-2.782-.392-5.968-2.61-7.671s-5.576-1.029-8.492-.956c-11.678.282-20.109-11.3-31.249-14.852a24.362,24.362,0,0,0-23.2,4.988c-4.84,4.363-7.708,10.478-12.034,15.343-11.029,12.365-29.19,14.705-45.721,15.379-10.073.441-18.725.466-20.551,10.392" transform="translate(9.482 10.476)"/><g class="b" transform="translate(260.148 502.971)"><path class="c" d="M243.95,434.138c1.078,4.9-.478,10.073.086,15.085.809,7.353,6.127,11.421,8.811,17.72,2.573,5.931.147,11.151-2.181,16.838a65.941,65.941,0,0,0-1.225,46.236c3.86,4.056,6.287,3.419,10.012,4.007s6.556-4.252,5.711-8.027-3.774-6.666-6.127-9.8c-5.845-7.72-7.965-19.227-2.169-27.058,2.782-3.774,6.973-6.237,10.2-9.632,5.772-6.127,11.029-21.212,6.74-29.251a21.433,21.433,0,0,0-3.872-4.8,41.506,41.506,0,0,0-7.5-6.568c-7.978-4.988-18.553-4.179-26.58-9.081" transform="translate(-235.85 -429.8)"/></g><path class="d" d="M173.978,241.793a20.22,20.22,0,0,1,4.9-19.607,7.463,7.463,0,0,1,3.762-2.39c3.431-.686,6.385,2.573,7.193,5.747s.429,6.605,1.74,9.632c3.211-5.649,12-7.071,17.989-3.946s9.289,9.558,9.987,15.931-.772,12.708-2.243,18.933a75.144,75.144,0,0,0,9.068-18.382c1.152,6.679-5.686,12.1-7.892,18.541a65.95,65.95,0,0,0-1.471,6.911c-2.23,9.8-10.33,17.891-12.046,27.781-1.544,8.946,2.328,17.842,6.127,26.188a94.114,94.114,0,0,1,18.651-51.726c5.49-7.353,12.254-14.436,13.982-23.283,1.912-9.8-2.757-20.563,1.777-29.594,4.289,17.254,21.31,31.1,40.292,32.781-6.826-5.576-14.019-11.74-15.931-19.987-.809-3.517-.588-7.181-1.507-10.674-1.532-5.784-6.054-10.539-7.941-16.249a19.3,19.3,0,0,1,2.549-16.923c4.9.061,8.345,4.154,11.384,7.671s7.487,7.157,12.144,5.858c2.157-.6,3.97-2.218,6.213-2.365,4.412-.294,6.593,4.644,9.289,7.892,7.353,8.835,23.528,6.862,31.445,15.269-7.561-9.914-18.639-17.058-26.482-26.543-6.519-7.88-6.605-32.891-3.321-34.165,11.654-4.546-19.815-.343-32.94,1.924s-22.56,12.328-34.631,17.242c-9.718,3.946-20.722,4.363-31.249,3.186-9.8-1.115-20.759-3.3-28.773,2.071s-9.179,16.4-5.086,24.631" transform="translate(9.151 13.038)"/><g class="b" transform="translate(156.225 107.153)"><path class="e" d="M152.473,179.346c12.254-4.816,20.673-12.965,26.96-23.663s12.254-23.663,21.69-31.567a85.856,85.856,0,0,1,19.938-11.727,88.4,88.4,0,0,1,19.178-5.012c5.343-.907,11.323-.539,16.739-.27,7.855.417,15.036,3.6,22.56,5.919,17.45,5.38,31.69,18.847,49.3,23.663,3.995,1.091,8.161,1.74,11.911,3.542s7.132,5.073,7.684,9.228-2.831,8.823-6.948,8.37c-1.225-.135-2.549-.7-3.774-.331-2.279.674-2.537,3.676-3.26,6.017a9.485,9.485,0,0,1-10.5,6.311c-3.051-.6-6.495-2.647-8.9-.674-1.225,1.017-1.605,2.745-2.292,4.2-2.953,6.25-11.495,7.083-18.149,5.478s-13.357-4.767-20.036-3.284c-8.125,1.814-13.272,9.8-20.379,14.2a25.183,25.183,0,0,1-15.7,3.6c-4.681-.478-9.62-2.243-13.909-.27a22.059,22.059,0,0,0-5.527,4.448,41.457,41.457,0,0,1-17.781,9.8c-2.77.723-5.907,1.1-8.37-.38-2.99-1.789-3.983-5.662-6.287-8.3-3.456-3.946-9.264-4.583-14.46-4.436s-10.71.735-15.379-1.618a9.019,9.019,0,0,1-4.9-5.625c-.613-2.524-1.8-6.789.613-7.671" transform="translate(-151.046 -106.799)"/></g><g class="f" transform="translate(189.872 121.395)"><path class="g" d="M182.788,182.106c-2.806-4.277-4.8-9.068-4.167-13.995a15.6,15.6,0,0,1,10.294-12.218c4.791-1.777,11.029-1.875,14.007-5.306,3.309-3.872-.355-8.578-.833-13-.784-7.23,7.5-13.86,16.409-16.911,6.237-2.145,13.406-3.088,19.509-1.348s10.625,6.691,9.313,11.776c-1.164,4.583-6.348,8.014-9.681,12.034a5.931,5.931,0,0,0-1.814,4.216c.417,3.211,5.968,4.375,9.975,3.1s6.9-4.044,10.122-6.323c9.019-6.409,21.862-9.411,33.369-7.794,4.105.576,8.223,1.826,10.6,4.375a5.723,5.723,0,0,1-1.029,8.86c-2.99,1.961-7.255,1.74-11.029,1.507a202.869,202.869,0,0,0-25.894,0c-6.924.453-14.436,1.471-19.472,5.38-3.247,2.512-5.024,5.919-8.076,8.578s-8.578,4.424-11.85,2.328c-5.024-3.162-.27-11.6-6.2-13.725-4.9-1.728-9.8,3.407-10.649,7.635s-.686,9.313-5.355,11.826c-2.77,1.5-6.348,1.483-9.448,2.451s-5.747,4.24-3.48,5.943" transform="translate(-178.503 -118.421)"/></g><path class="h" d="M354.069,236.382c.135.135.392.441-.478,3.272a41.442,41.442,0,0,1-5.564,11.421,51.322,51.322,0,0,1-10.232,9.4c-6.544,4.546-10.294,4.9-15.061,8.86a31.065,31.065,0,0,0-9.068,13.627c-8.578,12.254-1.924,26.862-8.933,38.246-8.443,13.725-30.55,9.632-42.792,20.122-9.8,8.443-9.24,26.151,1.225,33.9,5.343,3.97,16.151,7.414,20.832,12.12,6.483,6.47,5.772,14.705,1.716,22.879s-16.727,11.96-23.651,17.965-11.58,15.526-15.257,23.921a34.312,34.312,0,0,0-1.544,22.34c-6.483-3.26-13.48-7.169-15.833-14.044-3.272-9.742,4.73-19.534,12.892-25.734,4.73-3.676,9.914-7.083,12.683-12.352s1.924-13.039-3.443-15.612c-2.451-1.225-6.3-2.3-5.6-4.963.27-1.029,1.225-1.7,1.9-2.561,1.924-2.451.919-6.25-1.225-8.578s-5.061-3.676-7.671-5.4c-9.313-6.274-14.154-18.161-12.536-29.288s9.326-20.833,19.4-25.734c11.813-5.711,28.185-6.556,33.369-18.59,1.029-2.377,1.507-5.037,3.064-7.1,2.708-3.578,6.507-4.105,9.8-5.478,7.733-3.211,12.1-9.73,13.627-12,6.728-10.049,3.027-19.092,11.348-27.217a23.537,23.537,0,0,1,2.708-2.316c3.566-2.279,7.353-1.961,15.649-6.532C347.292,244.495,353.7,236.014,354.069,236.382Z" transform="translate(22.104 29.564)"/><ellipse class="i" cx="2.61" cy="2.696" rx="2.61" ry="2.696" transform="translate(267.88 571.314)"/><ellipse class="i" cx="2.169" cy="2.243" rx="2.169" ry="2.243" transform="translate(291.348 288.127)"/><ellipse class="j" cx="3.627" cy="3.75" rx="3.627" ry="3.75" transform="translate(270.491 259.354)"/><ellipse class="j" cx="2.169" cy="2.243" rx="2.169" ry="2.243" transform="translate(247.893 315.993)"/><path class="j" d="M246.67,387.026a2.61,2.61,0,1,1-2.61-2.7A2.659,2.659,0,0,1,246.67,387.026Z" transform="translate(25.561 62.92)"/><path class="j" d="M268.422,213.376a2.083,2.083,0,1,1,.233,0h0" transform="translate(31.197 23.442)"/><path class="j" d="M294.023,455.43a3.676,3.676,0,1,1-1.05-2.647,3.676,3.676,0,0,1,1.05,2.647Z" transform="translate(35.755 78.104)"/><path class="j" d="M238.112,360.935a3.676,3.676,0,0,1-3.676,3.75,1.138,1.138,0,0,1-.282,0,3.738,3.738,0,1,1,3.921-3.676Z" transform="translate(23.114 56.807)"/><path class="j" d="M180.32,499.517a3.67,3.67,0,0,1,0,.38h0a2.72,2.72,0,1,1,0-.392Z" transform="translate(10.554 88.316)"/><path class="j" d="M304.53,476.346a2.61,2.61,0,1,1-2.6-2.7h.184A2.659,2.659,0,0,1,304.53,476.346Z" transform="translate(38.604 83.057)"/><ellipse class="j" cx="3.627" cy="3.75" rx="3.627" ry="3.75" transform="translate(296.568 377.118)"/><ellipse class="j" cx="2.169" cy="2.243" rx="2.169" ry="2.243" transform="translate(307.695 391.885)"/><ellipse class="j" cx="2.169" cy="2.243" rx="2.169" ry="2.243" transform="translate(283.296 471.073)"/><path class="j" d="M268.256,212.63Z" transform="translate(31.559 24.212)"/><ellipse class="j" cx="2.169" cy="2.243" rx="2.169" ry="2.243" transform="translate(261.435 519.956)"/><ellipse class="j" cx="2.61" cy="2.696" rx="2.61" ry="2.696" transform="translate(333.944 593.789)"/><ellipse class="j" cx="2.169" cy="2.243" rx="2.169" ry="2.243" transform="translate(190.518 416.688)"/><ellipse class="j" cx="2.169" cy="2.243" rx="2.169" ry="2.243" transform="translate(212.993 454.725)"/><path class="k" d="M209.261,473.977l-.061.1,29.815-26.96h0V363.05" transform="translate(18.29 58.123)"/><path class="k" d="M179.19,571.293h10.882l13.566,23.283h11.495V480.684l-15.661-24.276V279.626l42.89-59.936h.319V181.174L249,180.23l-.674,69.458-44.643,57.155v131.33L180.71,399.964v-54.14l18.811-13.48,39.435-28.786V434.68l-12.022,10.943v59.63l-10.772,9.914h-.086" transform="translate(11.524 16.908)"/><path class="j" d="M259.3,478.51v22.144H235.835l-5.22-5.4-22.095-.355" transform="translate(18.137 84.152)"/><path class="k" d="M250.458,388.73v25.7l-8.394,7.12v31.616l-28.773,25.845-.221,1.213v22.07h20V511.9h16.519" transform="translate(19.162 63.912)"/><path class="k" d="M313.9,532.3V486.358H303.366V350l-30.379-26.065V213.709l-1.176-.159v30l-24.791.5h0V371.926l11.629,10v65.181" transform="translate(26.816 24.42)"/><path class="k" d="M301.927,195.63v35.587h.1l-32.548,35.905-6.323,4.975-.564,71.566L295.824,369.4V509.4" transform="translate(30.326 20.38)"/><path class="k" d="M278.438,367.847V469.73L252.483,493.7v38.013l.11.049,35.648,45.856h13.909l-5.22,9.889h-8.688l-43.466-56.64H227.632L222.84,180.98" transform="translate(21.365 17.077)"/><path class="j" d="M268.21,385.437h10.061V342.51" transform="translate(31.593 53.492)"/><g class="b" transform="translate(177.92 206.208)"><path class="e" d="M171.569,191.085a55.145,55.145,0,0,0,2.966,42c7.524,14.889,21.984,26.494,33.479,38.234a1.875,1.875,0,0,0,2.61,0c3.5-3.958,2.451-8.48-.429-12.487-5.135-7.034-11.433-12.818-15.845-20.477a56.946,56.946,0,0,1-3.9-48.393,1.85,1.85,0,0,0-2.255-2.267c-3.75,1.225-9.35,4.669-13.137,2.267-2.01-1.225-3.86,1.912-1.863,3.174,5.122,3.235,10.894-.208,15.931-1.887l-2.255-2.267a61.86,61.86,0,0,0-1.581,38.246,67.608,67.608,0,0,0,9.105,18.149c3.027,4.448,18.051,18.308,13.578,23.283h2.61c-10.49-10.686-23.112-21.139-30.967-34.006a51.138,51.138,0,0,1-4.534-42.633c.735-2.255-2.819-3.223-3.554-.98Z" transform="translate(-168.749 -187.631)"/></g><g class="b" transform="translate(209.591 201.893)"><path class="e" d="M212.089,186.279c6.372,18,12.512,39.275,10.085,58.552-1.311,10.306-6.519,16.813-13.921,23.627-5.355,4.9-8.848,10.061-9.669,17.463-1.789,16.127,4.8,31.151,13.345,44.312a121.467,121.467,0,0,1,6.777,10.784c2.524,5,1.691,9.987,0,15.11-2.757,8.578-5.22,17.291-7.916,25.955-2.12,6.838-3.823,14.215.723,20.391s11.642,9.693,18.382,12.463l.49-3.6a43.515,43.515,0,0,1-20.048-4.412c-9.166-4.73-7.831-17.916-3.774-25.845,3.113-6.127,8.443-11.752,9.191-18.811.809-7.671-4.105-14.865-6.63-21.752-3.051-8.357-6.9-16.666-9.142-25.281a57.191,57.191,0,0,1,.723-29.8c4.461-15.6,20.563-24.84,21.041-41.959.527-18.725-13.161-35.624-23.626-49.851-1.385-1.887-4.583,0-3.174,1.85,10.625,14.436,26.7,33.638,22.548,52.964-2,9.3-9.154,15.833-14.35,23.394a49.336,49.336,0,0,0-7.929,22.217c-2.255,18.075,5.061,35.256,11.973,51.6,1.826,4.314,4.363,8.578,4.816,13.333.564,5.8-2.819,10.588-5.711,15.294-4.118,6.691-7,13.2-6.336,21.237.649,7.843,3.48,12.524,10.71,15.539a50.108,50.108,0,0,0,19.717,3.958c2.218,0,2.3-2.868.49-3.615a46.69,46.69,0,0,1-13.32-7.818c-5.343-4.767-5.956-9.73-4.35-16.519,2.451-10.429,6.3-20.587,9.362-30.844,2.843-9.485.429-15.551-4.742-23.614-5.943-9.252-11.9-17.953-14.117-28.908-2.451-11.973-3.088-22.953,6.385-31.96,7.108-6.74,12.928-12.536,15.048-22.475,1.985-9.289.993-18.933-.441-28.185a194.918,194.918,0,0,0-9.093-35.709c-.784-2.218-4.338-1.225-3.542.968Z" transform="translate(-194.594 -184.11)"/></g><g class="b" transform="translate(255.898 197.723)"><path class="l" d="M233.679,182.022c-8.443,35.66,26.114,58.306,52.78,72.754,14.387,7.794,29.509,15.232,42.033,25.918,5.992,5.122,10.6,11.372,15.2,17.72,4.9,6.838,10,14.191,11.433,22.658.392,2.328,3.934,1.348,3.542-.968-2.218-13.1-12.377-25.624-20.833-35.427-9.8-11.36-23.823-19.031-36.763-26.163-27.634-15.208-73.159-36.016-63.809-75.524.539-2.292-3-3.272-3.542-.968Z" transform="translate(-232.382 -180.707)"/></g><g class="b" transform="translate(309.334 180.011)"><path class="m" d="M276.383,168.063a61.162,61.162,0,0,0,4.2,30.207c3.566,8.186,9.8,13.48,16.838,18.651,4.216,3.076,8.578,6.127,11.985,10.1,4.448,5.269,7.892,15.808-1.789,18.112-5.858,1.4-15.355.907-14.877,9.583.123,2.353,3.8,2.365,3.676,0-.38-6.875,10.318-5.012,14.3-6.679a11.029,11.029,0,0,0,6.421-7.353c2.034-7.181-2.671-14.117-7.6-18.86-6.47-6.237-14.938-10.2-20.832-17.156-8.284-9.8-9.889-24.325-8.7-36.653.221-2.353-3.456-2.341-3.676,0Z" transform="translate(-275.988 -166.254)"/></g><g class="b" transform="translate(242.125 445.877)"><path class="n" d="M239.742,383.958c-5.318,6.911-12.953,14.227-16.274,22.377a37.536,37.536,0,0,0-1.838,19.031c1,5.7,3.921,10.833,9.264,13.419,2.72,1.311,5.87,1.728,8.48,3.26,4.154,2.451,2.733,5.8,5.429,8.713,1.74,1.9,3.738,1.667,6.127,1.752a21.96,21.96,0,0,1,12.928,4.2c6.973,5.147,10.576,13.9,5.2,21.372-7.193,9.975-20.011,18.565-21.531,31.7-1.323,11.544,8.713,26.457,20.526,28.479,2.3.4,3.309-3.137.968-3.542-8.3-1.422-15.637-10.747-17.475-18.541-2.279-9.693,4.632-17.781,10.6-24.509,4.142-4.718,9.914-9.571,12.377-15.514s.38-12.512-3.3-17.34a25.317,25.317,0,0,0-18.6-9.951c-3.272-.159-4.228,0-5.907-3.088-.527-.968-.551-2.1-1.152-3.1-1.483-2.451-4.154-3.836-6.752-4.9-5.5-2.23-10.294-3.345-12.622-9.509-1.544-4.068-1.348-8.443-.895-12.7,1.225-11.9,10.625-20.612,17.671-29.754,1.434-1.875-1.752-3.676-3.186-1.85Z" transform="translate(-221.143 -383.21)"/></g><g class="b" transform="translate(297.518 215.109)"><path class="o" d="M266.474,196.249c5.233,9.326,15.061,14.4,21,23.1,2.255,3.321,3.958,7.353,3.149,11.519-.858,4.4-6.127,6.041-9.681,7.353-3.272,1.164-6.764,1.887-7.5,5.662-.221,1.164,1.556,1.654,1.777.49.895-4.632,12.254-5.723,15.4-9.558,2.684-3.333,2.451-7.708,1.042-11.519-4.338-11.727-17.61-17.254-23.614-27.952-.576-1.029-2.169-.1-1.581.931Z" transform="translate(-266.345 -194.895)"/></g><g class="b" transform="translate(250.286 239.352)"><path class="e" d="M229.1,215.355c-6.4,23.014,12.156,40.77,27.989,54.275,4.9,4.2,11.029,8.995,9.877,16.213-.968,6.127-7.034,10.343-11.568,13.872-8.309,6.483-15.1,13.9-18.8,23.908-.417,1.115,1.36,1.593,1.765.49,4.546-12.254,13.762-18.639,23.063-26.96,5.76-5.122,10.085-12.083,5.821-19.607-2.279-4.032-6.127-6.948-9.644-9.9a168.509,168.509,0,0,1-13.627-12.585c-9.9-10.527-17.156-24.509-13.039-39.214a.922.922,0,0,0-1.777-.49Z" transform="translate(-227.803 -214.678)"/></g><g class="b" transform="translate(285.866 269.793)"><path class="e" d="M257.27,241.334c13.075,9.571,30.991,24.791,21.359,42.89-.551,1.054,1.042,1.985,1.593.931,10.134-19.117-8.063-35.256-22.058-45.464-.956-.7-1.875.895-.931,1.581Z" transform="translate(-256.837 -239.519)"/></g><path class="p" d="M156.045,172.532c-4.559,1.716-4.154,9.056-.233,11.936s9.338,2.451,14.093,1.422,9.669-2.537,14.4-1.372a6.336,6.336,0,0,1,3.443,1.875c2.635,3.076.294,8.909,3.676,11.237a6.127,6.127,0,0,0,5.049.392c7.059-1.9,12.156-7.806,17.462-12.83s12.254-9.656,19.436-8.039c5.11,1.152,9.62,5.441,14.816,4.681,5.87-.87,8.725-7.438,13.088-11.47a17.609,17.609,0,0,1,15.526-4.191c5.588,1.225,11.458,5.184,16.494,2.451,2.071-1.127,3.542-3.26,5.76-4.056,2.819-1.017,6.409.294,8.713-1.63,1.875-1.556,1.838-4.375,2.757-6.63,2.586-6.336,11.237-6.581,18.075-6.495a8.5,8.5,0,0,0,5.086-1.054c2.892-2.034,2.3-6.654.233-9.522s-5.2-4.9-7.12-7.843a22.058,22.058,0,0,1,22.671,10.71c2.451,4.436,2.034,11.7-2.941,12.671-1.434.27-2.966-.074-4.314.453-3.836,1.5-2.684,7.965-6.127,10.318-2.157,1.5-5.318.5-7.046-1.471s-2.451-4.657-3.015-7.218c-2.929,2.586-3.064,7-3.554,10.87s-2.341,8.407-6.213,8.909c-3.333.429-6.188-2.451-9.509-2.88-5.686-.772-10.33,5.539-16.065,5.343-4.019-.147-7.353-3.468-11.323-3.909s-7.782,2.157-10.551,5.135-5.012,6.483-8.308,8.848c-8.97,6.421-21.935,2.169-32.033,6.617-3.676,1.618-6.789,4.338-10.306,6.287a28.725,28.725,0,0,1-23.443,1.875,10.331,10.331,0,0,0-4.9-1.066c-1.667.233-3.039,1.385-4.6,2.01-3.909,1.569-8.37-.392-11.691-2.99s-6.127-5.919-10-7.671c-4.363-2.01-9.656-1.814-13.578-4.583a10.527,10.527,0,0,1,6.973-19.068" transform="translate(3.936 5.832)"/><path class="q" d="M246.647,168.841c1.924.221-1.728,8.713-2.071,9.951a35.624,35.624,0,0,0-1.446,9.558,37.622,37.622,0,0,0,4.2,16.482c6.654,13.713,18.737,23.9,24.509,38.148.441,1.078,2.218.613,1.777-.49-4.8-11.936-13.786-20.967-20.673-31.629-3.811-5.894-7.12-12.5-7.806-19.607-.76-7.733,2.059-14.987,4.9-22.058a.87.87,0,0,0-.233-.895,3.676,3.676,0,0,0-3.162-1.3C245.422,166.868,245.483,168.706,246.647,168.841Z" transform="translate(25.939 13.922)"/><path class="r" d="M171.718,188.668c-2.537,7.916-5.159,16.2-4.51,24.631.564,7.353,4.032,13.7,7.99,19.754,9.326,14.252,20.109,27.56,33.087,38.675.882.772,2.194-.527,1.3-1.3a175.936,175.936,0,0,1-30.415-34.79c-4.252-6.238-8.578-12.634-9.8-20.244-1.385-8.958,1.422-17.781,4.13-26.237.355-1.127-1.409-1.618-1.777-.49Z" transform="translate(8.801 18.666)"/><path class="s" d="M231.6,238.054c-4.215,14.093-15.563,24.827-18.86,39.288a46.567,46.567,0,0,0,7.01,36.2c.65.98,2.243.061,1.581-.931a44.618,44.618,0,0,1-5.135-40.44c4.473-11.9,13.48-21.384,17.156-33.663.343-1.127-1.434-1.618-1.777-.49Z" transform="translate(18.844 29.791)"/><path class="t" d="M247.029,496.115c-10.7-17.046-2.132-37.143,12.254-48.834,9.73-7.9,25.146-12.254,26.96-26.555,1.667-13.271-8.7-19.864-19.1-24.815-6.483-3.088-13.48-6.666-15.588-14.142a19.313,19.313,0,0,1,8.762-21.972.931.931,0,0,0-.453-1.716h-.27l.466,1.716c12.6-9.362,31.678-8.284,42.192-20.673,5.661-6.666,6.568-15.477,7.855-23.8,1.532-9.865,4.657-17.928,11.985-24.925,10.576-10.122,25.992-16.825,31.751-31.163,6.728-16.727-3.566-34.03-14.3-46.42-14.521-16.789-37.2-31.861-36.187-56.726,0-1.017-1.618-1.225-1.814-.245-.588,3.113-.49,8.358-2.108,11.029-2.451,4.056-9.914,1.225-13.578.625a.944.944,0,0,0-1.225.882A69.753,69.753,0,0,0,295.213,212.5c9.387,14.546,25.305,23.528,34.655,37.989,2.88,4.448,4.546,10.514,1.52,15.379-2.12,3.394-5.98,4.583-9.424,6.127-5.024,2.169-9.522,5.086-12.389,9.889-5.343,8.958-3.272,20.109-1,29.68.27,1.14,2.034.662,1.765-.49-3.48-14.791-3.97-30.4,12.254-37.339,4.4-1.887,9.056-3.578,11.127-8.284,2.451-5.674.613-11.9-2.855-16.666-10.723-14.705-27.033-24.448-36.1-40.55a67.558,67.558,0,0,1-8.456-27.891c-.147-1.985-.208-3.983-.172-5.968,0-.294.061-5.613-.65-5.049.711-.551,5.355.821,6.274.968,3.162.478,6.826,1.7,8.884-1.593s1.936-8.688,2.635-12.316l-1.8-.245c-.686,16.862,9.938,30.391,21.078,41.935,13.259,13.749,31.567,29.031,31.58,49.949,0,18.994-17.891,27.781-30.477,38.5-4.816,4.117-9.228,8.835-11.85,14.705-3.762,8.431-3.407,17.891-5.894,26.678-6.127,21.764-31.469,18.97-46.824,30.366a.931.931,0,0,0,.466,1.716h.27l-.466-1.716c-10.012,5.7-13.823,19.938-6.973,29.57,8.676,12.254,29.668,10.625,31.935,28.185,1.52,11.8-7.7,18.039-16.507,23.283-6.985,4.179-13.406,8.97-18.467,15.416-9.509,12.144-12.389,28.859-3.921,42.339.625,1,2.218.086,1.581-.919Z" transform="translate(25.325 11.268)"/><path class="u" d="M236.858,316.4c23.7-18.712,24.509-50.623,22.278-78.208-.1-1.164-1.936-1.225-1.838,0,2.181,27.143,1.605,58.478-21.739,76.909-.931.735.38,2.034,1.3,1.3Z" transform="translate(24.16 29.773)"/><path class="v" d="M247.119,481.733a22.377,22.377,0,0,0,3.554,21.053c3.676,4.62,9.8,5.809,10.576,12.377.723,5.943-.956,13.161-1.4,19.166a.931.931,0,0,0,1.164.882c12.414-2.708,21.629-13.786,20.514-26.727-1.042-12.169-9.877-19.693-20.551-23.994-11.286-4.534-27.621-6.25-33.81-18.21-5-9.657.355-20.453,7.059-27.719,4.767-5.171,11.433-8.578,15.428-14.5,6.213-9.13-.76-16-9.8-17.365-5.784-.87-13.308-.184-18.2-3.946-10.012-7.708,1.127-19.742,4.9-27.609,3.48-7.193,1.752-12.328-.907-19.472a24.4,24.4,0,0,1,4.387-24.509c5.576-6.593,12.254-7.426,20.232-8.9,5.625-1.054,10.183-3.345,13.737-7.978,5.2-6.8,5.429-15.992,10.527-22.805,3-4.019,7.524-6.25,11.213-9.522a38.725,38.725,0,0,0,7.353-9.019c10.049-16.825,7.034-37.094.809-54.667-.392-1.1-2.169-.637-1.777.49,7.01,19.742,10.11,45.452-7.022,61.272-5.612,5.184-11.642,8-14.926,15.257-3.995,8.848-5.208,20.085-15.588,24.006-6.287,2.377-13.173,1.507-19.141,4.9a27.217,27.217,0,0,0-11.152,12.72,25.256,25.256,0,0,0-.466,19.252c2.132,5.711,4.117,10.281,1.765,16.409-1.752,4.522-4.9,8.272-7.1,12.585-2.622,5.22-4.314,12-.294,16.985,2.953,3.676,7.733,4.742,12.169,5.355,5.931.821,15.771,0,18.921,6.274,4.779,9.632-11.213,17.781-16.458,23.492-8.48,9.191-13.847,23.283-4.632,33.957,7.9,9.117,21.58,10.747,32.192,15.048,9.644,3.909,17.744,10.514,19.08,21.482a22.671,22.671,0,0,1-3.9,15.931c-1.483,2.12-11.47,11.9-13.823,8.443-.747-1.1.466-6.25.576-7.659.208-2.831.515-5.661.613-8.492s-.147-5.306-2.169-7.353c-3.517-3.676-7.855-4.828-10.563-9.644a20.575,20.575,0,0,1-1.409-16.727c.368-1.115-1.4-1.605-1.777-.478Z" transform="translate(19.781 25.343)"/><path class="w" d="M232.11,411.718c-7.353-2.72-16.813-4.167-22.646-9.8-7.536-7.267-2.9-18.382.588-26.384,2.659-6.127,5.87-12.524,5.809-19.374,0-8.75-6.887-14.705-8.86-22.891l-1.777.49,1.225,4.044,1.777-.49c-4.485-11.237-8.9-22.769-9.9-34.925-1.029-12.365,2.978-22.842,10.11-32.731,5.514-7.671,11.789-14.877,15-23.908,3.321-9.362,3.223-19.448,1.544-29.141a119.1,119.1,0,0,0-4.142-16.213c-1.225-3.762-2.132-8.86-4.6-12.083-3.48-4.546-7.353,1.127-10.723,2.9-4.742,2.451-6.532-.233-10.955-.331a2.916,2.916,0,0,0-2.929,1.1c-.907,1.042-1.127,3.676-1.532,5.1a58.021,58.021,0,0,0-1.9,11.029c-.735,9.558.748,17.156,6.127,25.2a229.156,229.156,0,0,0,20.649,25.734c.8.882,2.1-.417,1.3-1.3-5.465-6.127-10.563-12.475-15.575-18.909-6.36-8.174-10.882-15.661-10.808-26.212,0-5.318.208-11.838,2.524-16.764,2.586-5.514,8.027-.061,12.708-2.267,1.961-.931,4.265-4.13,6.274-4.363,4.9-.576,6.507,7.9,7.708,11.617,3.2,9.963,5.76,20.514,5.171,31.053s-4.522,19.215-10.527,27.56c-4.816,6.691-10.343,13-13.737,20.6-8.419,18.884-.674,39.778,6.47,57.706.429,1.066,2.132.662,1.777-.49l-1.225-4.044a.922.922,0,1,0-1.777.49c1.042,4.277,3.272,7.745,5.38,11.556,3.247,5.882,4.13,11.237,2.39,17.708-2.39,8.848-8.149,16.7-9.24,25.93-2.01,17.046,15.441,19.938,27.867,24.509,1.115.417,1.593-1.36.49-1.777Z" transform="translate(13.517 18.34)"/><path class="e" d="M202.281,252.211c-9.044,7.978-19.962,16.507-22.916,28.822a23.663,23.663,0,0,0,1.225,15.612c1.323,2.782,3.787,4.9,5.037,7.671,2.034,4.522,1.042,8.578.527,13.3-1.042,9.424,4.326,17.45,14.448,17.156,3.456-.086,5.184-.649,7.438,2.451a18.81,18.81,0,0,1,2.733,7.132c.8,3.86,1.434,9.558-1.1,12.953-.7.944.895,1.863,1.593.919,3.615-4.828,2.059-13.737,0-18.86-1.042-2.512-2.647-5.331-5.318-6.409a7.855,7.855,0,0,0-3.051-.478c-4.387-.11-6.985.858-10.8-2.328-7.708-6.434-1.961-14.852-3.456-22.94-1.152-6.213-6.8-10.073-7.818-16.531-2.549-16.249,12.071-27.683,22.854-37.2.895-.784-.4-2.083-1.3-1.3Z" transform="translate(11.386 33.072)"/><path class="x" d="M237.387,178.174c-11.274,20.832,2.757,42.89,19.607,55.488,22.56,16.789,50.059,25.808,70.732,45.341,17.279,16.347,28.688,38.369,33.234,61.627,4.9,24.889,1.164,49.349-9.35,72.3-5.711,12.45-12.009,25.06-11.948,39.092a54.471,54.471,0,0,0,12.475,34.08c.735.919,2.034-.38,1.3-1.3a52.29,52.29,0,0,1-11.727-37.547c1.287-14.031,8.578-26.408,14.044-39.092a114.664,114.664,0,0,0,8.3-60.145,119.984,119.984,0,0,0-23.59-57.669c-14.6-18.945-35-30.636-55.6-41.959-13.124-7.23-27.082-14.411-37.327-25.6-10.7-11.678-16.494-28.933-8.517-43.687.564-1.042-1.029-1.973-1.593-.931Z" transform="translate(23.729 16.342)"/><path class="y" d="M174.281,187.829c9.558,21.421.172,45.917-11.139,64.728-10.906,18.173-25.477,34.312-32.107,54.851-6.25,19.313-2.243,38.822,8.48,55.721,12.169,19.178,32.168,31.212,44.79,49.851,14.338,21.188,16.58,49.189,6.409,72.546-.478,1.078,1.115,2.01,1.581.931a78.649,78.649,0,0,0,1.863-58.147c-7.818-21.531-25.734-34.178-40.746-50.341-16.948-18.21-28.467-42.143-21.445-67.24,6.4-22.891,23.283-40.341,34.741-60.61,10.625-18.835,18.492-42.339,9.179-63.22-.478-1.078-2.071-.147-1.593.931Z" transform="translate(0 18.303)"/><path class="z" d="M280.138,170.884c2.819,23.381,22.867,37.989,39.557,52.155,19.84,16.813,39.214,36.567,49.018,61.076,10.968,27.242,5.11,55.084-9.534,79.715-14.338,24.1-34.888,43.662-50.513,66.872s-26.371,52.29-17.242,80.119c.368,1.115,2.145.637,1.777-.49-9.24-28.185,2.242-57.24,18.271-80.487,15.465-22.426,35.317-41.591,49.287-65.083,12.72-21.4,19.668-45.868,13.259-70.5-5.894-22.6-20.832-41.837-37.119-58-19.227-19.019-51.468-35.905-54.961-65.377-.147-1.152-1.985-1.225-1.838,0Z" transform="translate(34.272 14.6)"/><path class="aa" d="M344.261,137.814c-8.137-1.556-16.384-2.806-24.141-5.784-9.656-3.676-18.382-9.607-27.352-14.6-14.816-8.186-30.293-13.357-47.4-11.985a79.984,79.984,0,0,0-42.2,16.2c-12.977,9.987-19.607,23.663-28.283,37.057-5.527,8.5-11.642,13.7-20.416,18.565-5.4,3-11.47,8.137-9.877,15.146,1.446,6.348,8.161,7.23,13.48,8.063,8.578,1.323,12.254,7.12,19.08,11.409a11.985,11.985,0,0,0,6.593,2.1c5.441-.11,8.37-4.718,14.448-2.941,2.819.821,4.8,2.868,7.941,3.064a14.705,14.705,0,0,0,8.259-2.255c7.9-4.473,12.549-10.955,22.4-11.213,7.181-.172,14.387.907,20.2-4.252,5.465-4.9,8.492-16.164,16.936-15.747,7.267.368,15.477,9.73,22.707,3.088,2.451-2.194,3.591-4.681,7.806-4.056,1.7.245,3.566,2.12,5.184,2.831a9.608,9.608,0,0,0,7.353.748c8.149-2.929,6.74-13.051,5.037-19.509l-.846,2.071c3.309-1.5,7.733,5.171,11.911,4.4a7.022,7.022,0,0,0,4.277-2.941,12.179,12.179,0,0,0,1.225-2.169c.441-.956,4.3-11.372,6.323-6.593a1.85,1.85,0,0,0,2.88.38c6.127-6.127,4.681-16.985-3.149-20.894-2.108-1.054-3.97,2.12-1.85,3.174a9.485,9.485,0,0,1,2.451,15.122l2.892.368c-2.549-6.017-9.093-2.243-11.115,1.948-1.323,2.733-1.348,8.848-7.046,7.353-1.593-.429-3.027-2.243-4.5-3.015a6.2,6.2,0,0,0-6.127-.27,1.838,1.838,0,0,0-.845,2.071c1.372,5.233,3.149,16.96-6.127,14.975-2.782-.588-5.049-3.051-7.757-3.946-7.475-2.451-8.639,6.556-15.355,6.421s-11.262-6.887-18.382-5.2c-4.681,1.1-7.61,5.147-10.208,8.86-4.9,7.034-8.664,11.188-18,11.237-7.353,0-13.48-.086-19.8,4.142-4.742,3.174-9.8,9.35-15.931,9.289-3.97,0-6.715-3.407-10.478-4.117-3.247-.6-5.392.784-8.161,2.23-8.014,4.191-12.389-3.137-18.382-7.524-5.392-3.97-11.029-3.027-16.923-5.22-8.676-3.211-3.676-11.152,1.52-14.4,3.37-2.1,7.059-3.529,10.281-5.894,5.453-3.995,9.632-9.375,13.284-15,8.063-12.426,14.215-25.416,25.979-34.962a75.855,75.855,0,0,1,41.334-16.482c18.945-1.52,35.109,5.429,51.236,14.705,7.353,4.228,14.6,8.713,22.536,11.727s16,4.228,24.141,5.784c2.316.441,3.3-3.1.98-3.542Z" transform="translate(3.665)"/></g></svg>