<svg xmlns="http://www.w3.org/2000/svg" xmlns:xlink="http://www.w3.org/1999/xlink" preserveAspectRatio="none"  viewBox="0 0 714.19 563.13"><defs><style>.cls-1{fill:#00000000;}.cls-2{fill:#d2b6f5;}.cls-3{fill:url(#linear-gradient);}</style><linearGradient id="linear-gradient" x1="357.09" y1="487.22" x2="357.09" y2="77" gradientUnits="userSpaceOnUse"><stop offset="0" stop-color="#463280"/><stop offset="1" stop-color="#8876b3"/></linearGradient></defs><title>Asset 1</title><g id="Layer_2" data-name="Layer 2"><g id="Layer_1-2" data-name="Layer 1"><path class="cls-1" d="M714.09,523c0,12.49-.06,25,.06,37.48,0,2.1-.35,3-2.54,2.54a13.9,13.9,0,0,0-2.5,0Q357,563,5,563.13c-4.54,0-5-1.32-5-5.24Q.18,448.95.09,340c1.37-.52,2.78-1,4.11-1.57q14.51-6.71,29-13.47c1.39,1.32,3.26,1.54,5,2,14.79,4.09,29.9,6.25,45.11,8.26,18.14,2.39,36.36,3.68,54.53,5.69,13.28,1.48,26.69,1.86,40,3.18,17.57,1.74,35.08,4.08,52.64,5.86,15,1.51,29.81,3.74,44.58,6.33,26.85,4.7,53.37,10.89,79.07,20.16a10.28,10.28,0,0,1,3.25,2.93c7.78,11.16,15.92,22.06,23.52,33.34,16.62,24.62,33.72,48.92,53.65,71,21.86,24.19,46.15,45.51,76.53,58.81a202.21,202.21,0,0,0,110.33,15.56,213,213,0,0,0,63.7-18.57C695.22,534.78,704.51,528.66,714.09,523Z"/><path class="cls-1" d="M213.09,7q248.25,0,496.5-.09c3.75,0,4.63.84,4.6,4.59-.19,26.17-.1,52.33-.1,78.5-1.92.15-3.36,1.27-4.9,2.28-9.07,5.92-17,13.29-25.1,20.36-20.82,18.11-43.26,33.51-68.79,44.34-26.91,11.41-55.06,16.73-84.08,18-10.13.44-20.18-.79-30.26-1.84a194,194,0,0,1-67.33-19.94C414.29,143.53,396,132,377.07,121.52c-38.25-21.1-79.57-30-122.88-30.42a530.78,530.78,0,0,0-55.64,2.82c-10.55,1-21.17,1.33-31.74,2.18-20.47,1.65-40.86,4-61.52,2.09A134.34,134.34,0,0,1,68.12,90C53.79,84.4,41.71,76.61,36,61.56,33.51,55,31.6,48.3,29.15,41.77,23.93,27.89,14.79,18,.09,14V7h119c.06,2.12-2.48,2.31-3,4-1.87,1.17-2.51-1-3.74-1.48a6.31,6.31,0,0,0-7.69,1.52c-2.27,2.39-2.09,5.32-.79,7.83a5.87,5.87,0,0,0,7.21,3.06,6.22,6.22,0,0,0,4.77-6.24c.07-1.57-1.19-3.23.21-4.72,2.9-.3,2.66,1.77,2.7,3.6,0,2,0,4,.1,6a1.32,1.32,0,0,0,1.18,1.36c.73.13,1.57-.16,1.49-.86-.54-4.73,2-9.33.54-14.07h11c.73,1.93-3,2.48-1.82,3.37,3.25,2.58,1.32,5.85,1.85,8.73.41,2.25,1.57,3.18,3.76,2.95a1.5,1.5,0,0,0,1.5-1.05c.2-.71-.35-.82-.77-1-3.53-1.81-2.22-5.5-1.41-7.31,1.05-2.31.43-3.8-.11-5.66h31c0,2.82-.08,5.67.21,8.47.23,2.15-1.24,6,1.11,6.08,2.77.05,1.15-3.73,1.36-5.79s.67-4.31,3-4.44c3.08-.17,2.14,2.58,2.51,4.4.42,2.1-1.39,5.94,1.35,6,3.53,0,1.11-3.95,1.83-6a2.79,2.79,0,0,0,0-1c-.16-4.2-1.66-6.94-6.47-5.33-3.1,1-1.89-1.05-1.92-2.32h40c.07,4.3.13,8.59.21,12.89,0,.81,0,1.82,1.06,1.95,1.42.19,1.49-1,1.51-1.95C213,15.59,213,11.3,213.09,7Zm37.78,9.72-1.55,1.58c.29-10.69-6.48-9.1-12.23-9.29-.16,0-.32-.06-.49-.07-3.87-.2-6.3,2.31-6.31,6.52,0,4,2.63,6.71,6.33,6.53.87,0,2.32-1.89,2.5.51.1,1.34-1.31,1.81-2.39,2.21s-2.24-.32-3.26-.85c-.73-.37-1.59-.95-2,.19-.31.81.1,1.46.95,2a6.77,6.77,0,0,0,10.26-5.23c.31-3.44.06-6.93.06-10.4a10.31,10.31,0,0,1,3.52,5.32c.89,3.12,4.54,6.38-.42,9.45-1,.63,0,1.89,1.22,1.71a4.72,4.72,0,0,0,3.83-2.85c1.81-4.27,3.56-8.56,5.36-12.82.33-.79.78-1.63-.31-2.06a1.78,1.78,0,0,0-2.41,1.15C252.6,12.45,251.74,14.59,250.87,16.72Zm-69.62-2.15a15.6,15.6,0,0,0,0,2.77c.38,1.58-1.13,4.37,1.48,4.47,2.8.1,1.27-2.76,1.67-4.31a6.09,6.09,0,0,0,0-1.48c0-2.21,0-4.89,3-4.66,2.71.21,1.76,3,2.2,4.81.48,2-1.6,5.63,1.82,5.57,2.71,0,.91-3.56,1.42-5.46a2.66,2.66,0,0,0,0-.49c.1-3.55-.15-7-4.93-6.83C184,9.1,179.06,8.62,181.25,14.57Zm14,.56c-.07,4.1,2.31,6.87,6,7a6.3,6.3,0,0,0,6.62-6.51c0-3.91-2.7-6.89-6.43-6.69S195.31,11.08,195.23,15.13Zm-44.37,4.35c-.85-.19-1.38-.51-1.71-.36-2.35,1.05-5.48,1.42-5.71-1.35-.29-3.37,3.24-1.4,4.93-1.51,2.79-.18,4.45-1,3.07-3.76C150.23,10.07,148,8.34,144.92,9a6.52,6.52,0,0,0-5.58,6.15,6,6,0,0,0,4.28,6.54C146.26,22.53,148.92,22.69,150.86,19.48Zm71.36,2.64c3.39-.11,6.71-3.61,6.51-6.87a7.17,7.17,0,0,0-7-6.37,6.85,6.85,0,0,0-6.37,6.91A6.71,6.71,0,0,0,222.22,22.12ZM164.58,11.33c-3.22-3.42-6.32-3.15-9.2.07a6.26,6.26,0,0,0,1,9.19c3,2.35,5.79,2.32,9-1.39-4,.1-8.65,2.24-8.46-3.89C157.06,9.61,161.39,11.75,164.58,11.33Z"/><path class="cls-2" d="M.09,14c14.7,4,23.84,13.89,29.06,27.77C31.6,48.3,33.51,55,36,61.56c5.72,15,17.8,22.84,32.13,28.41a134.34,134.34,0,0,0,37.17,8.22c20.66,1.86,41.05-.44,61.52-2.09,10.57-.85,21.19-1.16,31.74-2.18a530.78,530.78,0,0,1,55.64-2.82c43.31.41,84.63,9.32,122.88,30.42,18.92,10.44,37.22,22,56.56,31.68A194,194,0,0,0,501,173.14c10.08,1.05,20.13,2.28,30.26,1.84,29-1.27,57.17-6.59,84.08-18,25.53-10.83,48-26.23,68.79-44.34,8.11-7.07,16-14.44,25.1-20.36,1.54-1,3-2.13,4.9-2.28v94c-6.93,3.49-10.86,10-15.7,15.59-11.39,13.08-22.58,26.33-33.81,39.56a230.59,230.59,0,0,1-44.31,39.59,162.47,162.47,0,0,1-71.66,28c-31,4.23-61.17.48-89.44-14.05-18-9.25-34-21.29-49.47-34.24-15.75-13.21-31.25-26.75-48.42-38.11-22.18-14.67-46.17-25.14-72.63-29-19.76-2.9-39.65-2.88-59.61-1.47-11.4.81-22.74,2-34.08,3.28-11.15,1.24-22.26,2.86-33.39,4.28-7.22.91-14.43,2-21.68,2.6-6.94.6-13.91.91-20.88,1-22.83.41-43.42-6.23-61.49-20.23-11-8.51-17-20.23-20.39-33.43-2.86-11.23-5.22-22.59-8.2-33.78C24.59,97.34,16.18,84.1.09,77Z"/><path class="cls-1" d="M368.12,382.89c10,2.74,18.66,8.4,27.56,13.44,27,15.27,51.32,34.56,77.25,51.44,27,17.55,55.77,30.67,87.65,36,21.95,3.69,44,4.66,66.26,1.57A276.75,276.75,0,0,0,689.77,469c8.33-3.25,16.33-7.07,24.32-11v57c-35.81,26.12-76.27,38.21-120.21,38.81-10.16.15-20.44-1.06-30.64-2.61a183.25,183.25,0,0,1-76-29.39c-23.65-15.94-43.32-36-61.15-58.11C405.25,437.86,386.74,410.33,368.12,382.89Z"/><path class="cls-2" d="M368.12,382.89c18.62,27.44,37.13,55,58,80.81,17.83,22.08,37.5,42.17,61.15,58.11a183.25,183.25,0,0,0,76,29.39c10.2,1.55,20.48,2.76,30.64,2.61,43.94-.6,84.4-12.69,120.21-38.81v8c-9.58,5.66-18.87,11.78-29,16.5a213,213,0,0,1-63.7,18.57,202.21,202.21,0,0,1-110.33-15.56c-30.38-13.3-54.67-34.62-76.53-58.81-19.93-22.05-37-46.35-53.65-71-7.6-11.28-15.74-22.18-23.52-33.34a10.28,10.28,0,0,0-3.25-2.93,7.92,7.92,0,0,0-.74-2.31c-17.32-23.28-36.45-44.89-59.36-62.86-41.48-32.55-88.44-41.42-139.57-31.83-25.06,4.7-49.11,12.68-72.51,22.64-16.51,7-33,14.26-48.73,22.86q-14.51,6.74-29,13.47C2.87,339,1.46,339.48.09,340v-7c8.11-3.64,16.72-6.27,23.91-11.79,2.1,0,3.81-1,5.59-1.93,25.17-12.53,50.5-24.79,77.11-33.93,20.58-7.06,41.6-12.55,63.45-14.51,26-2.34,51.62-1.16,76.56,7.24,19.38,6.53,36.89,16.58,52.9,29.21,24.32,19.19,43.94,42.76,62.17,67.57l5.31,7.19,1.07.93Z"/><path class="cls-1" d="M24,321.21C16.81,326.73,8.2,329.36.09,333V305a11.28,11.28,0,0,0,1.72,1C10.54,309.12,16.7,316,24,321.21Z"/><path class="cls-1" d="M368.16,383l-1.07-.93C367.63,382.15,368.19,382.22,368.16,383Z"/><path class="cls-3" d="M353.37,374.15a7.93,7.93,0,0,1,.75,2.31C328.41,367.19,301.89,361,275,356.3c-14.77-2.59-29.62-4.82-44.58-6.33-17.56-1.78-35.07-4.12-52.64-5.86-13.31-1.32-26.72-1.7-40-3.18-18.17-2-36.39-3.3-54.53-5.69-15.21-2-30.32-4.17-45.11-8.26-1.72-.48-3.59-.7-5-2,15.78-8.6,32.22-15.83,48.73-22.86,23.4-10,47.45-17.94,72.51-22.64,51.13-9.59,98.09-.72,139.57,31.83C316.92,329.26,336.05,350.87,353.37,374.15Zm345-174.56c-11.39,13.08-22.58,26.33-33.81,39.56a230.83,230.83,0,0,1-44.3,39.59,162.51,162.51,0,0,1-71.67,28c-31,4.23-61.17.48-89.44-14.05-18-9.25-34-21.29-49.47-34.24-15.74-13.21-31.25-26.75-48.42-38.11-22.18-14.67-46.17-25.14-72.62-29-19.77-2.9-39.66-2.88-59.62-1.47-11.4.81-22.74,2-34.07,3.28-11.16,1.24-22.27,2.86-33.4,4.28-7.22.91-14.43,2-21.68,2.6-6.93.6-13.91.91-20.88,1-22.83.41-43.42-6.23-61.49-20.23-11-8.51-17-20.23-20.39-33.43-2.86-11.23-5.22-22.59-8.2-33.78C24.59,97.34,16.18,84.1.09,77V305a11.28,11.28,0,0,0,1.72,1c8.73,3.15,14.89,10,22.19,15.24,2.1,0,3.81-1,5.59-1.93,25.17-12.53,50.5-24.79,77.12-33.93,20.57-7.06,41.59-12.55,63.44-14.51,26-2.34,51.62-1.16,76.56,7.24,19.39,6.53,36.89,16.58,52.9,29.21,24.32,19.19,43.94,42.76,62.17,67.57l5.31,7.19c.52.1,1.06.17,1.07.85,10,2.75,18.63,8.4,27.52,13.43,27,15.27,51.32,34.56,77.25,51.44,27,17.55,55.77,30.67,87.65,36,21.95,3.69,44,4.66,66.26,1.57A276.75,276.75,0,0,0,689.77,469c8.33-3.25,16.33-7.07,24.32-11V184C707.17,187.49,703.23,194,698.39,199.59ZM368.12,382.89l0,.09v-.08Z"/><rect class="cls-1" x="0.09" width="714" height="12"/><rect class="cls-1" x="82.09" y="11" width="201" height="22"/></g></g></svg>