<svg xmlns="http://www.w3.org/2000/svg" xmlns:xlink="http://www.w3.org/1999/xlink" preserveAspectRatio="none" viewBox="0 0 355.12 310.76"><defs><style>.cls-1{fill:url(#linear-gradient);}</style><linearGradient id="linear-gradient" x1="188.16" y1="271.83" x2="134.94" y2="-34.34" gradientUnits="userSpaceOnUse"><stop offset="0" stop-color="#dfc6ff"/><stop offset="0.84" stop-color="#f0ecff"/></linearGradient></defs><title>Asset 2</title><g id="Layer_2" data-name="Layer 2"><g id="Layer_1-2" data-name="Layer 1"><path class="cls-1" d="M287.5,229c-14.59-5.92-32.8-13.31-40.56-32.91s6.9-31.51-29.35-56.72-73.36-34.32-82.85-60.23-4.32-70.72-38.84-77S27.72,4.24,21.68,16.85s-4.32,39.21,3.45,51.82,3.45,33.61-9.49,47.62-24.94,53.28-5.18,73.52c16.4,16.81,43.15,25.91,59.55,23.81s26.76-2.1,43.15,3.51,17.26,30.81,83.72,40.61,44,14.71,58.69,25.21,59.55,40.62,82.85,21.71,23.3-79.13-6.9-77S294.84,232,287.5,229Z"/></g></g></svg>