<svg xmlns="http://www.w3.org/2000/svg" width="5178.528" height="1536" viewBox="0 0 5178.528 1536">
  <g id="layer1" transform="translate(5541.125 622.148)">
    <g id="g9840" transform="translate(-1470.187 24.84)">
      <path id="wordmark" d="M1578.368,676.819a10.8,10.8,0,0,0-12.407-6.66l-1.609.461c-15.365,3.279-27.2,2.357-35.507-3.177-11.783-7.839-17.494-25.565-17.494-54.153V354.927c0-100.928-60.943-152.109-181.271-152.109-107.714,0-192.121,50.31-192.121,114.556,0,33.045,20.4,56.919,50.509,60.505,19.674,2.357,38.466-6.455,52.066-20.647,26.474-27.563,23.1-60.4-9.032-95.6,19-19.622,52.637-31.2,91-31.2,62.5,0,89.182,36.58,89.182,122.343V418.1c-14.639,4.457-28.343,8.658-53.468,14.5-50.613,11.732-120.069,27.358-172.447,55.895-43.241,23.413-65.2,60.352-65.2,109.791,0,53.845,35.818,116.707,136.732,116.707,56.53,0,107.143-26.436,159.105-83.2,4.517,58.968,27.149,81.1,82.071,81.1,26.422,0,47.55-6.1,72.675-18.085a14.114,14.114,0,0,0,7.216-17.983ZM1411.683,597.87c-12.251,16.855-52.326,67.012-102.263,67.012-67.432,0-81.6-46.724-81.6-85.917,0-64.45,50.042-94.268,183.867-126.9Zm1293.193,119.32c-142.961,0-250.779-110.56-250.779-257.187,0-143.553,112.49-260.363,250.779-260.363,140,0,249.742,112.455,249.742,256.111C2954.618,617.236,2825,717.191,2704.876,717.191Zm-5.4-489.987c-61.773,0-132.735,26.231-132.735,230.648,0,155.951,46.616,231.724,142.494,231.724,91.726,0,132.684-71.418,132.684-231.724,0-155.183-46.616-230.648-142.443-230.648ZM494.685,208.863c0,118.962-29.693,184.437-181.583,184.437H232.589V33.956h83.784C473.506,33.956,494.685,122.383,494.685,208.863Zm-262.1,404.428V426.344h72.934c108.8,0,191.549-22.7,246-67.524,56.946-46.878,68.885-106.256,68.885-147.805C620.412,40.1,453.313,4.241,313.1,4.241l.571-.05H29.36A11.655,11.655,0,0,0,17.68,15.718v.565a13.786,13.786,0,0,0,9.188,13.064c25.332,9.222,94.114-3.689,94.114,69.112v514.73c0,37.451-16.819,63.887-93.7,71.059A11.544,11.544,0,0,0,16.59,695.673v1.793a11.534,11.534,0,0,0,11.628,11.476H332a11.578,11.578,0,0,0,11.68-11.476v-1.588a11.74,11.74,0,0,0-10.9-11.476c-83.524-6.609-100.291-32.123-100.291-71.213V426.7ZM850.324,199.385c-132.216,0-239.826,118.142-239.826,263.386,0,147.037,100.862,253.754,239.826,253.754,116.747,0,173.588-68.856,206.136-120.6a11.454,11.454,0,0,0-3.167-15.421l-1.558-1.076a11.835,11.835,0,0,0-15.937,2.305C992.869,634.86,955.286,665.6,890.4,665.6c-82.07,0-169.747-55.792-169.747-212.461v-1.127c-.156-6.916,0-16.394.259-25.258h335.809a1.71,1.71,0,0,0,1.714-1.639l.212-2.664c4.776-64.194-13.652-121.933-51.858-162.458-37.324-39.654-91.414-60.608-156.458-60.608ZM722.78,393.761C733.837,286.583,776.2,227.819,842.745,227.819c33.275,0,57.984,9.119,75.426,27.87,23.982,25.667,34.157,72.135,30.16,138.071ZM2242.2,399.5h-.106c-91.83-25.462-127.6-51.181-127.6-91.808,0-46.263,37.22-79.871,88.507-79.871,60.32,0,86.172,28.485,149.866,133.563l.831,1.383a2.465,2.465,0,0,0,.884.871h9.344a11.622,11.622,0,0,0,11.68-11.527V201.075a2.743,2.743,0,0,0-.778-1.691h-12.51a11.614,11.614,0,0,0-8.98,4.2l-20.349,24.387c-25.644-13.935-67.432-28.588-109.375-28.588-105.482,0-179.143,64.3-179.143,156.412,0,86.48,58.088,118.859,158.379,145.6,97.436,26.334,132.008,53.743,132.008,104.617,0,56.612-55.544,82.023-95,82.023-73.4,0-104.392-26.9-174.73-151.6l-.831-1.486a2.9,2.9,0,0,0-.883-.922h-9.448a11.655,11.655,0,0,0-11.68,11.527V714.783a1.739,1.739,0,0,0,1.764,1.742h11.939a11.84,11.84,0,0,0,8.254-3.381l32.132-31.713c37.635,23.055,93.906,35.094,130.451,35.094,54.869,0,99.979-17.163,130.451-49.593,27.2-28.946,42.151-69.932,42.151-115.427,0-78.8-42.618-119.986-157.236-152.006ZM1686.5,648.232c0,26.077-6.7,34.633-48.8,37.246a11.484,11.484,0,0,0,.779,22.952h207.8a11.376,11.376,0,0,0,.415-22.747c-48.069-2.305-60.528-9.99-60.528-37.451V347.5c34.209-56.151,58.762-85.558,100.291-94.421a87.705,87.705,0,0,0-3.322,22.491c0,36.529,25.852,62.042,62.864,62.042,36.337,0,61.773-25.514,61.773-62.042,0-34.531-21.854-74.9-83.524-74.9-50.509,0-98.786,28.588-140.262,96.983V220.288A14.142,14.142,0,0,0,1769.4,206.25l-130.918,3.484a11.5,11.5,0,0,0-11.316,11.476v1.639a11.386,11.386,0,0,0,9.707,11.322c43.657,6.1,49.678,26.59,49.626,47.851ZM3123.742,205.943a11.47,11.47,0,0,1,8.046,3.279,11.171,11.171,0,0,1,3.634,8.2l.416,85.763s42.67-100.62,181.063-100.62h1.246c86.275,0,135.746,54.306,135.746,148.984V647.771c0,26.077,6.749,34.633,48.8,37.246a11.484,11.484,0,0,1-.727,22.952H3315.24a11.625,11.625,0,0,1-1.039-23.208c33.95-2.869,39.348-11.322,39.348-36.99V380.44c0-88.325-25.436-122.65-90.687-122.65-44.124,0-80.2,37.963-102.73,69.83,0,0-11.524,14.243-23.983,41.088L3137.5,647.72c0,25.667,5.294,34.121,38.258,36.99a11.654,11.654,0,0,1-1.039,23.259h-185.58a11.51,11.51,0,0,1-.727-23c42.048-2.613,48.744-11.117,48.744-37.195v-365.7c0-21.313-6.021-41.908-49.886-48.056a11.483,11.483,0,0,1-9.759-11.374v-1.69a11.553,11.553,0,0,1,11.368-11.527Z" transform="translate(-2406 -239.678)" fill="#fff"/>
      <path id="thumbprint" d="M1112.648,98.92c329.16,184.934,405.8,599.55,176.757,1019.082-201.266,368.741-640.77,526.232-968.268,338.533C-6.414,1268.734-70.335,744.909,70.437,443.5,274.818,5.737,748.957-105.469,1112.648,98.92" transform="translate(-4071 -647)" fill="#fff"/>
      <path id="interrobang" d="M854.38,147.912c64.411,67.852,84.446,170.781,73.287,255.225-12.82,96.273-71.989,185.376-170.345,244.42C679.312,694.463,576.8,713.1,475.956,714.025c-.831,15.772-4,70.1-5.605,78.708C468.015,805.382,463.5,812.244,458,819.31c-10.848,13.98-29.636,22.942-48.321,28.216-14.792,4.1-29.481,5.94-39.913,5.94-1.713,0-3.426-.153-5.138-.307-10.951-1.229-23.149-6.35-30.674-14.595-7.526-8.347-11.782-18.794-12.768-30.674l-.831-10.754c-2.128-9.218-13.806-477.061-11.574-468.714,1.713-56.074,93.425-65.8,143.2-55.92,49.879,9.883,37.266,69.7,35.917,143.18,0,0-2.387,96.631-7.007,198.741,63.529-2.407,113.979-20.279,161.158-43.374,95.345-46.7,145.795-118.241,145.795-223.578S683.931,124.151,492.15,124.151,218.051,171.878,125.2,247.667c-20.917,17.1-37.059,34.31-52.266,45.627-15.259,11.317-55.8,13.058-66.591-13.468-13.131-31.954,11.315-67.6,25.692-84.853C54.609,167.883,110.2,113.346,171.858,81.648,242.5,45.289,328.864,6.115,449.122,3.093,557.911.43,729.709,9.085,853.445,146.99M438.431,922.5a78.782,78.782,0,0,0-32.595-15.158,60.337,60.337,0,0,0-11.73-1.178c-21.384,0-42.4,11.624-56.107,31.135-11.419,16.182-16.142,35.59-13.131,54.333,1.972,12.034,6.488,22.429,13.235,30.162,7.526,8.705,19.048,15.414,33.373,19.459a95.658,95.658,0,0,0,25.173,3.482h.053c18.477,0,35.086-5.531,48.01-15.772A60.553,60.553,0,0,0,467.7,980.464,74.727,74.727,0,0,0,438.432,922.5" transform="translate(-3827.027 -402.719)" fill="#34375a"/>
    </g>
  </g>
</svg>
