<svg xmlns="http://www.w3.org/2000/svg" xmlns:xlink="http://www.w3.org/1999/xlink" viewBox="0 0 288 108"><defs><style>.cls-1{fill:none;}.cls-2{fill:#e9e9e9;}.cls-3{fill:#9d9d9d;}.cls-4{fill:#b7b7b7;}.cls-5{clip-path:url(#clip-path);}.cls-6{clip-path:url(#clip-path-2);}.cls-7{fill:#ddc0ff;}.cls-8{fill:#8174e2;}</style><clipPath id="clip-path"><rect class="cls-1" x="20" y="18" width="72" height="72"/></clipPath><clipPath id="clip-path-2"><rect class="cls-1" x="20" y="18" width="72" height="72"/></clipPath></defs><title>1</title><g id="gray_-_bottom_extra" data-name="gray - bottom extra"><rect class="cls-1" x="20" y="18" width="72" height="72"/><rect class="cls-1" x="20" y="18" width="72" height="72"/><path class="cls-2" d="M91.87,51.07a9.21,9.21,0,0,1-6.08,2.35h-.16c-5.43-.09-11.13-5-16.93-14.52-4.44-7.25-10.12-11.71-16.87-13.27-10-2.31-19.56,2.41-22.23,3.9a35.94,35.94,0,0,0-7.5,12.33c3.8-2.41,10.8-5.81,18.58-4.5C47.83,38.57,54,43.49,58.9,52,63,60.12,68,64.88,73.85,66.17c8,1.76,15.3-3.43,17.36-5.06l.1-.08A36.11,36.11,0,0,0,92,54c0-1,0-2-.13-2.94"/><path class="cls-2" d="M52.37,23.25C59.79,25,66,29.8,70.78,37.63,77.43,48.57,82.55,50.93,85.68,51h.1a7.39,7.39,0,0,0,5.7-3A36,36,0,0,0,35.72,24.25a31.69,31.69,0,0,1,16.65-1"/><path class="cls-3" d="M35.07,57c5.44.42,10.28,5,14.39,13.46C53.27,78,58.16,82.61,64,84c6.86,1.64,13.28-1.53,15.89-3.09A36,36,0,0,0,90.48,64.33c-2.87,1.89-7.75,4.4-13.31,4.4a17.35,17.35,0,0,1-3.8-.42C66.84,66.87,61.31,61.73,57,53,52.4,45.19,46.79,40.63,40.32,39.53c-9-1.51-17.18,4.17-19.25,5.75a36,36,0,0,0,.42,19c2.09-2.52,7.25-7.76,13.58-7.26"/><path class="cls-3" d="M68,86.67a19.57,19.57,0,0,1-4.51-.52c-6.51-1.56-11.9-6.51-16-14.74-3.74-7.76-8-11.87-12.57-12.23-6.63-.54-12.13,6.94-12.59,7.57A36,36,0,0,0,71.88,86.31a22.86,22.86,0,0,1-3.88.36"/><rect class="cls-1" x="108" y="18" width="72" height="72"/><rect class="cls-1" x="108" y="18" width="72" height="72"/><path class="cls-2" d="M179.87,51.07a9.21,9.21,0,0,1-6.08,2.35h-.16c-5.43-.09-11.13-5-16.93-14.52-4.44-7.25-10.12-11.71-16.87-13.27-10-2.31-19.56,2.41-22.23,3.9a35.94,35.94,0,0,0-7.5,12.33c3.8-2.41,10.8-5.81,18.58-4.5C135.83,38.57,142,43.49,146.9,52c4.08,8.14,9.1,12.9,14.95,14.19,8,1.76,15.3-3.43,17.36-5.06l.1-.08a36.11,36.11,0,0,0,.69-7c0-1-.05-2-.13-2.94"/><path class="cls-2" d="M140.37,23.25C147.79,25,154,29.8,158.78,37.63c6.65,10.94,11.77,13.3,14.9,13.35h.1a7.39,7.39,0,0,0,5.7-3,36,36,0,0,0-55.76-23.69,31.69,31.69,0,0,1,16.65-1"/><path class="cls-4" d="M123.07,57c5.44.42,10.28,5,14.39,13.46C141.27,78,146.16,82.61,152,84c6.86,1.64,13.28-1.53,15.89-3.09a36,36,0,0,0,10.58-16.58c-2.87,1.89-7.75,4.4-13.31,4.4a17.35,17.35,0,0,1-3.8-.42C154.84,66.87,149.31,61.73,145,53c-4.55-7.83-10.16-12.39-16.63-13.49-9-1.51-17.18,4.17-19.25,5.75a36,36,0,0,0,.42,19c2.09-2.52,7.25-7.76,13.58-7.26"/><path class="cls-4" d="M156,86.67a19.57,19.57,0,0,1-4.51-.52c-6.51-1.56-11.9-6.51-16-14.74-3.74-7.76-8-11.87-12.57-12.23-6.63-.54-12.13,6.94-12.59,7.57a36,36,0,0,0,49.56,19.56,22.86,22.86,0,0,1-3.88.36"/><rect class="cls-1" x="197" y="18" width="72" height="72"/><rect class="cls-1" x="197" y="18" width="72" height="72"/><path class="cls-2" d="M268.87,51.07a9.21,9.21,0,0,1-6.08,2.35h-.16c-5.43-.09-11.13-5-16.93-14.52-4.44-7.25-10.12-11.71-16.87-13.27-10-2.31-19.56,2.41-22.23,3.9a35.94,35.94,0,0,0-7.5,12.33c3.8-2.41,10.8-5.81,18.58-4.5C224.83,38.57,231,43.49,235.9,52c4.08,8.14,9.1,12.9,14.95,14.19,8,1.76,15.3-3.43,17.36-5.06l.1-.08a36.11,36.11,0,0,0,.69-7c0-1-.05-2-.13-2.94"/><path class="cls-2" d="M229.37,23.25C236.79,25,243,29.8,247.78,37.63c6.65,10.94,11.77,13.3,14.9,13.35h.1a7.39,7.39,0,0,0,5.7-3,36,36,0,0,0-55.76-23.69,31.69,31.69,0,0,1,16.65-1"/><path class="cls-4" d="M212.07,57c5.44.42,10.28,5,14.39,13.46C230.27,78,235.16,82.61,241,84c6.86,1.64,13.28-1.53,15.89-3.09a36,36,0,0,0,10.58-16.58c-2.87,1.89-7.75,4.4-13.31,4.4a17.35,17.35,0,0,1-3.8-.42C243.84,66.87,238.31,61.73,234,53c-4.55-7.83-10.16-12.39-16.63-13.49-9-1.51-17.18,4.17-19.25,5.75a36,36,0,0,0,.42,19c2.09-2.52,7.25-7.76,13.58-7.26"/><path class="cls-4" d="M245,86.67a19.57,19.57,0,0,1-4.51-.52c-6.51-1.56-11.9-6.51-16-14.74-3.74-7.76-8-11.87-12.57-12.23-6.63-.54-12.13,6.94-12.59,7.57a36,36,0,0,0,49.56,19.56,22.86,22.86,0,0,1-3.88.36"/></g><g id="_1" data-name="1"><g id="color"><g class="cls-5"><g id="Artwork_2" data-name="Artwork 2"><g class="cls-6"><path class="cls-7" d="M91.87,51.07a9.21,9.21,0,0,1-6.08,2.35h-.16c-5.43-.09-11.13-5-16.93-14.52-4.44-7.25-10.12-11.71-16.87-13.27-10-2.31-19.56,2.41-22.23,3.9a35.94,35.94,0,0,0-7.5,12.33c3.8-2.41,10.8-5.81,18.58-4.5C47.83,38.57,54,43.49,58.9,52,63,60.12,68,64.88,73.85,66.17c8,1.76,15.3-3.43,17.36-5.06l.1-.08A36.11,36.11,0,0,0,92,54c0-1,0-2-.13-2.94"/><path class="cls-7" d="M52.37,23.25C59.79,25,66,29.8,70.78,37.63,77.43,48.57,82.55,50.93,85.68,51h.1a7.39,7.39,0,0,0,5.7-3A36,36,0,0,0,35.72,24.25a31.69,31.69,0,0,1,16.65-1"/><path class="cls-8" d="M35.07,57c5.44.42,10.28,5,14.39,13.46C53.27,78,58.16,82.61,64,84c6.86,1.64,13.28-1.53,15.89-3.09A36,36,0,0,0,90.48,64.33c-2.87,1.89-7.75,4.4-13.31,4.4a17.35,17.35,0,0,1-3.8-.42C66.84,66.87,61.31,61.73,57,53,52.4,45.19,46.79,40.63,40.32,39.53c-9-1.51-17.18,4.17-19.25,5.75a36,36,0,0,0,.42,19c2.09-2.52,7.25-7.76,13.58-7.26"/><path class="cls-8" d="M68,86.67a19.57,19.57,0,0,1-4.51-.52c-6.51-1.56-11.9-6.51-16-14.74-3.74-7.76-8-11.87-12.57-12.23-6.63-.54-12.13,6.94-12.59,7.57A36,36,0,0,0,71.88,86.31a22.86,22.86,0,0,1-3.88.36"/></g></g></g></g></g></svg>